<svg width="800" height="800" viewBox="0 0 800 800" fill="none" xmlns="http://www.w3.org/2000/svg">
<g clip-path="url(#clip0_801_3)">
<path fill-rule="evenodd" clip-rule="evenodd" d="M700 450H450V700C450 727.5 427.6 750 400 750C372.4 750 350 727.5 350 700V450H100C72.4 450 50 427.5 50 400C50 372.5 72.4 350 100 350H350V100C350 72.5 372.4 50 400 50C427.6 50 450 72.5 450 100V350H700C727.6 350 750 372.5 750 400C750 427.5 727.6 450 700 450ZM700 300H500V100C500 44.75 455.225 0 400 0C344.775 0 300 44.75 300 100V300H100C44.775 300 0 344.75 0 400C0 455.25 44.775 500 100 500H300V700C300 755.25 344.775 800 400 800C455.225 800 500 755.25 500 700V500H700C755.225 500 800 455.25 800 400C800 344.75 755.225 300 700 300Z" fill="#8CFD65" fill-opacity="0.35"/>
</g>
<defs>
<clipPath id="clip0_801_3">
<rect width="800" height="800" fill="white"/>
</clipPath>
</defs>
</svg>
